<svg xmlns="http://www.w3.org/2000/svg" width="1200" height="630" viewBox="0 0 1200 630" role="img" aria-label="Original schematic illustration of an English Electric Lightning F.6 in profile, labelled (schematic).">
  <defs>
    <linearGradient id="bg3" x1="0" x2="1" y1="0" y2="1">
      <stop offset="0" stop-color="#0b1220"/>
      <stop offset="1" stop-color="#3b1c24"/>
    </linearGradient>
  </defs>
  <rect width="1200" height="630" fill="url(#bg3)"/>

  <!-- Lightning schematic silhouette (not a photo) -->
  <g fill="#e5e7eb" opacity="0.95">
    <!-- Fuselage -->
    <path d="M220 330
             C360 300, 520 292, 650 300
             C760 306, 840 314, 950 318
             C990 320, 1010 328, 1040 340
             C1010 352, 990 360, 950 362
             C840 366, 760 374, 650 380
             C520 390, 360 382, 220 350
             Z"/>
    <!-- Nose cone -->
    <path d="M210 340 L250 320 L255 330 L255 350 L250 360 Z" fill="#f3f4f6"/>
    <!-- Fin -->
    <path d="M860 290 L900 240 L920 252 L900 310 Z" fill="#cbd5e1"/>
    <!-- Wing -->
    <path d="M520 360 L660 360 L760 440 L520 440 Z" fill="#cbd5e1"/>
    <!-- Ventral tank (simplified) -->
    <path d="M610 382 C650 392, 690 410, 710 430 C680 436, 640 430, 610 418 Z" fill="#9ca3af" opacity="0.9"/>
  </g>

  <!-- Annotations -->
  <g font-family="ui-sans-serif, system-ui, -apple-system, Segoe UI, Roboto, Arial" fill="#f9fafb">
    <text x="70" y="92" font-size="52" font-weight="800">English Electric Lightning F.6 (schematic)</text>
    <text x="70" y="140" font-size="26" opacity="0.9">Original illustration used for this article’s header image (not a photograph)</text>
  </g>
</svg>
