<svg xmlns="http://www.w3.org/2000/svg" width="1600" height="900" viewBox="0 0 1600 900" role="img" aria-label="Original schematic illustration: F-86 flight line maintenance motif (diagrammatic).">
  <defs>
    <linearGradient id="bg" x1="0" y1="0" x2="0" y2="1">
      <stop offset="0" stop-color="#0b1220"/>
      <stop offset="1" stop-color="#111827"/>
    </linearGradient>
    <style>
      .line { stroke:#e5e7eb; stroke-width:6; stroke-linecap:round; stroke-linejoin:round; fill:none; opacity:.95; }
      .thin { stroke:#cbd5e1; stroke-width:3; stroke-linecap:round; stroke-linejoin:round; fill:none; opacity:.75; }
      .muted { stroke:#94a3b8; stroke-width:3; opacity:.55; fill:none; }
      .fill { fill:#0b1220; stroke:#e5e7eb; stroke-width:6; opacity:.98; }
      .equip { fill:#0a1020; stroke:#cbd5e1; stroke-width:4; opacity:.9; }
      .text { fill:#e5e7eb; font-family: ui-sans-serif, system-ui, -apple-system, Segoe UI, Roboto, Arial, "Noto Sans", "Liberation Sans", sans-serif; }
      .small { font-size:26px; opacity:.9; }
      .tiny { font-size:22px; opacity:.85; }
    </style>
  </defs>

  <rect width="1600" height="900" fill="url(#bg)"/>
  <rect x="140" y="150" width="1320" height="600" rx="26" fill="#0a1020" opacity=".55"/>

  <text x="180" y="210" class="text small">Forward base flight line — serviceability motif (original schematic)</text>
  <text x="180" y="250" class="text tiny" opacity=".8">Diagrammatic: aircraft blocks + maintenance equipment (not a photo; not to scale)</text>

  <!-- Concrete hardstand -->
  <path class="muted" d="M220 680 H1380"/>
  <path class="muted" d="M260 720 H1340"/>

  <!-- Two simplified Sabre blocks -->
  <path class="fill" d="M360 520 C430 495, 540 490, 640 510 C700 525, 750 550, 780 575 C790 585, 790 598, 778 606 C730 640, 670 660, 590 666 C510 672, 440 656, 390 630 C360 615, 338 595, 332 575 C324 545, 335 530, 360 520 Z"/>
  <circle cx="410" cy="585" r="34" class="line"/>
  <path class="fill" d="M860 520 C930 495, 1040 490, 1140 510 C1200 525, 1250 550, 1280 575 C1290 585, 1290 598, 1278 606 C1230 640, 1170 660, 1090 666 C1010 672, 940 656, 890 630 C860 615, 838 595, 832 575 C824 545, 835 530, 860 520 Z"/>
  <circle cx="910" cy="585" r="34" class="line"/>

  <!-- Support equipment -->
  <rect x="700" y="630" width="180" height="70" rx="14" class="equip"/>
  <path class="thin" d="M720 630 V600 M760 630 V600 M800 630 V610"/>
  <rect x="540" y="640" width="120" height="60" rx="12" class="equip"/>
  <rect x="1000" y="640" width="120" height="60" rx="12" class="equip"/>

  <!-- Crew stick figures -->
  <g transform="translate(620 610)">
    <circle cx="0" cy="0" r="14" fill="#0b1220" stroke="#cbd5e1" stroke-width="4"/>
    <path class="thin" d="M0 14 V52"/>
    <path class="thin" d="M-16 28 H16"/>
    <path class="thin" d="M-12 52 L-26 76"/>
    <path class="thin" d="M12 52 L26 76"/>
  </g>
</svg>

